<svg width="26" height="22" viewBox="0 0 26 22" fill="none" xmlns="http://www.w3.org/2000/svg">
<path d="M22.1 0.600006H3.9C2.86567 0.600006 1.87366 1.01091 1.14228 1.74229C0.410904 2.47367 0 3.46567 0 4.50001V17.5C0 18.5343 0.410904 19.5263 1.14228 20.2577C1.87366 20.9891 2.86567 21.4 3.9 21.4H22.1C23.1343 21.4 24.1263 20.9891 24.8577 20.2577C25.5891 19.5263 26 18.5343 26 17.5V4.50001C26 3.46567 25.5891 2.47367 24.8577 1.74229C24.1263 1.01091 23.1343 0.600006 22.1 0.600006ZM21.567 3.20001L13.923 10.844C13.8022 10.9658 13.6584 11.0626 13.4999 11.1285C13.3415 11.1945 13.1716 11.2285 13 11.2285C12.8284 11.2285 12.6585 11.1945 12.5001 11.1285C12.3416 11.0626 12.1978 10.9658 12.077 10.844L4.433 3.20001H21.567ZM23.4 17.5C23.4 17.8448 23.263 18.1754 23.0193 18.4193C22.7754 18.663 22.4448 18.8 22.1 18.8H3.9C3.55524 18.8 3.22457 18.663 2.98074 18.4193C2.73697 18.1754 2.6 17.8448 2.6 17.5V5.03301L10.244 12.677C10.9753 13.4073 11.9665 13.8176 13 13.8176C14.0335 13.8176 15.0247 13.4073 15.756 12.677L23.4 5.03301V17.5Z" fill="#E7EB90"/>
</svg>
