<svg width="134" height="214" viewBox="0 0 134 214" fill="none" xmlns="http://www.w3.org/2000/svg">
<path d="M114.245 59.8253C114.346 59.3853 114.616 58.9844 115.029 58.7324C115.442 58.4804 115.888 58.3906 116.36 58.4996C118.955 59.0996 123.876 60.2371 126.505 60.8448C126.943 60.9461 127.339 61.2306 127.601 61.6385C127.828 62.0385 127.937 62.4885 127.828 62.9651C126.766 67.5841 123.84 80.3047 122.778 84.9238C122.677 85.3637 122.407 85.7646 121.994 86.0166C121.615 86.2764 121.134 86.3585 120.663 86.2494C118.067 85.6495 113.146 84.512 110.517 83.9042C110.079 83.803 109.683 83.5184 109.422 83.1105C109.195 82.7105 109.085 82.2605 109.195 81.7839C110.266 77.1282 113.191 64.4076 114.245 59.8253Z" fill="#3D248A"/>
<path d="M116.129 61.7074C116.194 61.4216 116.367 61.1808 116.613 61.0256C116.859 60.8704 117.151 60.8215 117.439 60.8882C118.138 61.0498 119.06 61.2627 119.759 61.4242C120.036 61.4884 120.288 61.663 120.442 61.9105C120.595 62.1581 120.643 62.4566 120.579 62.736C120.415 63.4507 120.201 64.3798 120.037 65.0944C119.971 65.3803 119.799 65.621 119.552 65.7763C119.306 65.9315 119.015 65.9804 118.726 65.9137C118.027 65.7521 117.106 65.5392 116.406 65.3776C116.129 65.3135 115.877 65.1389 115.724 64.8913C115.57 64.6438 115.522 64.3452 115.586 64.0659C115.751 63.3512 115.964 62.4221 116.129 61.7074Z" fill="white"/>
<path d="M121.395 48.9566C121.461 48.6707 121.633 48.43 121.879 48.2747C122.125 48.1195 122.417 48.0706 122.706 48.1373C123.405 48.2989 124.326 48.5118 125.025 48.6734C125.303 48.7375 125.555 48.9121 125.708 49.1597C125.862 49.4072 125.91 49.7058 125.846 49.9851C125.681 50.6998 125.468 51.6289 125.303 52.3436C125.237 52.6294 125.065 52.8701 124.819 53.0254C124.573 53.1806 124.281 53.2295 123.993 53.1628C123.293 53.0012 122.372 52.7883 121.673 52.6267C121.396 52.5626 121.144 52.388 120.99 52.1405C120.837 51.8929 120.788 51.5944 120.853 51.315C121.017 50.6003 121.232 49.6647 121.395 48.9566Z" fill="#00D5FF"/>
<path d="M114.776 68.6988C114.653 69.2353 114.486 69.9583 114.363 70.4947C114.289 70.8166 114.346 71.154 114.517 71.4294C114.688 71.7096 114.97 71.9074 115.288 71.981C115.814 72.1026 116.531 72.2683 117.057 72.3899C117.376 72.4635 117.716 72.4094 117.991 72.2324C118.267 72.0554 118.465 71.777 118.538 71.4598C118.662 70.9233 118.828 70.2003 118.952 69.6638C119.026 69.342 118.969 69.0046 118.797 68.7291C118.627 68.449 118.345 68.2512 118.026 68.1776C117.5 68.056 116.783 67.8903 116.257 67.7687C115.939 67.695 115.599 67.7492 115.323 67.9262C115.048 68.0985 114.85 68.3769 114.776 68.6988ZM115.764 68.9272C115.777 68.8712 115.814 68.8207 115.863 68.788C115.913 68.7552 115.974 68.7448 116.03 68.7576C116.556 68.8792 117.273 69.0449 117.799 69.1665C117.855 69.1794 117.905 69.2156 117.935 69.2668C117.965 69.318 117.976 69.3795 117.963 69.4355C117.84 69.9719 117.674 70.695 117.55 71.2314C117.537 71.2874 117.501 71.3378 117.451 71.3706C117.402 71.4034 117.341 71.4138 117.285 71.4009C116.759 71.2794 116.042 71.1136 115.516 70.9921C115.46 70.9792 115.41 70.943 115.379 70.8918C115.349 70.8406 115.338 70.7791 115.351 70.7231L115.764 68.9272Z" fill="white"/>
<path d="M124.533 57.4671C124.638 57.0115 124.905 56.6195 125.315 56.3772C125.704 56.13 126.186 56.0598 126.627 56.1619C128.1 56.5023 130.203 56.9885 131.676 57.3289C132.117 57.431 132.517 57.7178 132.761 58.0986C133.003 58.4916 133.093 58.9663 132.989 59.4218C132.646 60.9116 132.153 63.0539 131.814 64.5314C131.709 64.9869 131.441 65.3789 131.031 65.6212C130.642 65.8684 130.161 65.9387 129.719 65.8366C128.247 65.4962 126.143 65.0099 124.671 64.6695C124.229 64.5674 123.83 64.2806 123.585 63.8999C123.34 63.5191 123.253 63.0321 123.358 62.5766C123.698 61.0991 124.19 58.9568 124.533 57.4671Z" fill="#C2DE0B"/>
<path d="M124.028 57.3504C123.685 58.8401 123.192 60.9824 122.853 62.4599C122.719 63.0385 122.821 63.6584 123.148 64.1619C123.475 64.6655 123.968 65.0258 124.557 65.162C126.03 65.5024 128.133 65.9886 129.605 66.329C130.194 66.4652 130.795 66.3577 131.309 66.0486C131.823 65.7396 132.185 65.2267 132.318 64.648C132.661 63.1583 133.153 61.016 133.493 59.5385C133.626 58.9599 133.525 58.34 133.198 57.8365C132.892 57.3378 132.377 56.9726 131.788 56.8364C130.316 56.496 128.213 56.0098 126.74 55.6694C126.151 55.5332 125.551 55.6407 125.036 55.9498C124.519 56.2711 124.161 56.7717 124.028 57.3504ZM125.016 57.5789C125.09 57.2588 125.287 56.9802 125.569 56.812C125.852 56.6439 126.177 56.5765 126.493 56.6495C127.965 56.9899 130.068 57.4761 131.541 57.8165C131.856 57.8895 132.144 58.0855 132.3 58.3681C132.481 58.6432 132.536 58.9802 132.462 59.3003L131.287 64.4098C131.214 64.7299 131.017 65.0085 130.734 65.1766C130.452 65.3448 130.126 65.4121 129.811 65.3392C128.338 64.9988 126.235 64.5125 124.763 64.1722C124.447 64.0992 124.16 63.9032 124.003 63.6206C123.823 63.3455 123.768 63.0085 123.841 62.6884L125.016 57.5789Z" fill="#C2DE0B"/>
<path d="M44.9022 128.961L50.8857 146.716C51.3378 148.069 51.7296 149.41 51.9374 150.806C52.1452 152.202 52.3004 153.613 52.2639 155.052L51.5623 185.394L51.1708 190.994L62.3494 191.742L62.7409 186.143L66.1487 155.978C66.4061 153.732 66.4115 151.502 66.2701 149.258C66.1287 147.015 65.7353 144.788 65.2028 142.573L60.8492 124.34L58.5476 116.36L42.5929 120.955L44.9022 128.961Z" fill="#3D248A"/>
<path d="M66.561 125.077L83.8714 152.1C84.4554 153.035 84.9316 154.014 85.0449 155.076C85.1725 156.174 85.1565 157.33 84.7663 158.385L76.552 181.01L74.4249 186.21L84.7906 190.468L86.9177 185.268L96.8806 163.361C98.2133 160.444 98.7078 157.258 98.5911 154.108C98.4852 150.933 97.5488 147.82 96.0016 144.952L80.8357 116.671L76.6243 109.503L62.3137 117.924L66.561 125.077Z" fill="#3D248A"/>
<path d="M59.7126 201.879L64.9146 203.748L67.4976 204.408L66.1825 209.588L63.5995 208.928L55.1093 207.584L52.4507 206.897L52.1196 199.125L52.1855 195.167L60.0806 195.313L60.0146 199.272L59.7126 201.879Z" fill="#C2DE0B"/>
<path d="M67.2937 211.318L53.0519 208.418C52.58 208.331 52.1331 208.624 52.0311 209.1C51.929 209.575 52.2249 210.024 52.6967 210.11L66.9385 213.011C67.4104 213.097 67.8573 212.804 67.9593 212.328C68.0633 211.882 67.7655 211.404 67.2937 211.318Z" fill="#3D248A"/>
<path d="M60.0239 197.427C59.3992 197.523 58.7621 197.427 58.1357 197.496C57.6731 197.554 57.3176 197.989 57.3754 198.452C57.4332 198.916 57.868 199.272 58.3306 199.214C58.957 199.145 59.5924 199.213 60.2461 199.143C60.7086 199.085 61.0368 198.651 60.979 198.188C60.9194 197.697 60.4864 197.369 60.0239 197.427Z" fill="#3D248A"/>
<path d="M59.6984 200.416C59.0518 200.596 58.4344 200.801 57.7878 200.981C57.3289 201.094 57.0571 201.551 57.1695 202.011C57.282 202.47 57.7387 202.742 58.1977 202.63C58.846 202.477 59.489 202.243 60.1629 202.061C60.6218 201.948 60.8918 201.464 60.752 201.006C60.6123 200.548 60.1556 200.276 59.6984 200.416Z" fill="#3D248A"/>
<path d="M79.9269 200.101L84.3087 203.479L86.5666 204.9L83.7325 209.426L81.4746 208.005L73.8015 204.117L71.48 202.646L73.5385 195.147L74.8102 191.401L82.2824 193.966L81.0107 197.713L79.9269 200.101Z" fill="#C2DE0B"/>
<path d="M84.2479 211.413L71.5756 204.281C71.1527 204.054 70.6376 204.196 70.3953 204.617C70.1529 205.038 70.2973 205.556 70.7201 205.783L83.3924 212.915C83.8153 213.142 84.3304 213 84.5727 212.579C84.808 212.186 84.6707 211.64 84.2479 211.413Z" fill="#3D248A"/>
<path d="M81.5686 195.955C80.9446 195.855 80.3671 195.568 79.7497 195.441C79.2917 195.354 78.8202 195.659 78.7337 196.118C78.6472 196.577 78.9523 197.049 79.4104 197.136C80.0278 197.263 80.6119 197.523 81.2558 197.656C81.7138 197.743 82.1588 197.431 82.2453 196.973C82.3385 196.488 82.0532 196.049 81.5686 195.955Z" fill="#3D248A"/>
<path d="M80.3442 198.7C79.6737 198.673 79.023 198.679 78.3525 198.651C77.8811 198.618 77.4826 198.97 77.4492 199.442C77.4158 199.913 77.7675 200.313 78.2389 200.346C78.9028 200.4 79.5866 200.375 80.2837 200.409C80.7551 200.442 81.1602 200.064 81.1671 199.585C81.2005 199.113 80.8222 198.707 80.3442 198.7Z" fill="#3D248A"/>
<path d="M81.9936 73.5957C75.7035 62.681 61.789 58.9525 50.8845 65.2596C39.9801 71.5668 36.246 85.5034 42.5361 96.418L81.9936 73.5957Z" fill="#C2DE0B"/>
<path d="M108.072 57.6426L102.505 55.572C102.225 55.4734 101.961 55.6142 101.846 55.8704C101.747 56.1512 101.888 56.4152 102.143 56.5303L107.71 58.6009C107.991 58.6995 108.254 58.5587 108.369 58.3025C108.468 58.0216 108.336 57.7164 108.072 57.6426Z" fill="#3D248A"/>
<path d="M111.527 53.0711L103.38 44.9938C103.182 44.8043 102.86 44.8048 102.671 45.0033C102.481 45.2018 102.482 45.5238 102.68 45.7134L110.828 53.7907C111.026 53.9802 111.347 53.9797 111.537 53.7812C111.743 53.6074 111.742 53.2854 111.527 53.0711Z" fill="#3D248A"/>
<path d="M116.236 49.3082L114.267 43.0368C114.192 42.7645 113.878 42.6164 113.623 42.716C113.351 42.7908 113.203 43.1048 113.302 43.3605L115.272 49.6319C115.347 49.9042 115.66 50.0523 115.916 49.9527C116.171 49.8532 116.311 49.5805 116.236 49.3082Z" fill="#3D248A"/>
<path d="M76.7583 50.9407C76.9048 55.5065 73.7774 59.8534 69.5078 58.3861C68.7902 58.1445 68.1433 57.6045 67.604 57.0777C66.3096 55.8001 65.8383 54.1849 65.713 52.422C65.5636 50.5831 65.7959 48.5789 65.9087 46.5894C65.9197 46.2983 65.7039 46.0744 65.4291 46.0553C65.1543 46.0362 64.9161 46.2628 64.9051 46.554C64.8043 48.5815 64.5841 50.6237 64.7217 52.4905C64.8598 54.4889 65.4392 56.3148 66.9134 57.7679C67.5486 58.4016 68.3272 59.0309 69.1884 59.334C74.1159 61.0501 77.9345 56.2105 77.7617 50.9103C77.7369 50.6367 77.5211 50.4128 77.2344 50.4215C76.9717 50.4404 76.7335 50.6671 76.7583 50.9407Z" fill="#3D248A"/>
<path d="M65.6188 46.1282C64.7375 45.7045 63.75 45.0965 63.4254 44.1254C62.8884 42.786 63.6326 40.9324 65.249 40.9316C65.9903 40.9256 66.5874 41.3663 67.2344 41.6897C67.5077 41.8068 67.7862 41.6951 67.9253 41.4773C68.0419 41.2037 67.9301 40.9247 67.7125 40.7852C66.9483 40.4116 66.1951 39.904 65.32 39.8989C63.018 39.8833 61.8066 42.5074 62.5507 44.444C63.0039 45.6551 64.1366 46.4639 65.2912 47.0048C65.5645 47.1219 65.843 47.0101 65.943 46.7756C65.9873 46.5635 65.8921 46.2453 65.6188 46.1282Z" fill="#3D248A"/>
<path d="M66.6236 38.5855C65.7569 40.6174 70.1378 48.3167 77.2371 50.9416C83.6728 53.2822 88.9655 43.5798 82.4872 38.633C74.8538 32.8217 66.6236 38.5855 66.6236 38.5855Z" fill="#3D248A"/>
<path d="M68.002 41.537C67.3939 41.2303 66.6801 41.0632 66.0054 40.9129C64.2545 40.5789 62.3215 41.646 62.9043 43.7444C63.4084 45.4856 67.3083 47.7107 64.741 49.6154C62.9757 50.9392 60.5377 49.6176 59.0478 48.5635C55.5042 45.9363 54.1097 41.4103 55.1576 37.3296C56.2054 33.2488 61.1689 30.7065 65.2284 31.4747C68.7302 32.1426 72.3633 34.9929 71.6831 38.8614L68.002 41.537Z" fill="#3D248A"/>
<path d="M95.5547 82.4659C90.7097 85.3321 85.0351 88.3437 76.6621 91.9319C73.0757 93.4988 68.9761 93.3424 65.5466 91.5514C60.7264 89.0657 54.035 85.1889 50.2668 81.2537C49.0469 79.9734 48.1176 78.696 47.703 77.4842C47.3095 76.3495 47.3711 75.2138 47.9965 74.1716C50.4562 70.3044 54.1002 70.0061 57.8967 71.3232C61.8683 72.6751 65.9365 75.7405 69.0276 78.4119C72.6723 81.5939 77.6833 82.6597 82.3097 81.2625C87.7724 79.5937 94.1589 77.6707 94.1589 77.6707C94.4284 77.5965 94.5961 77.3018 94.4837 77.0427C94.4099 76.7729 94.1156 76.6053 93.8567 76.718C93.8567 76.718 87.4701 78.641 82.0074 80.3098C77.7275 81.6117 73.0667 80.6153 69.6988 77.6886C66.5377 74.9122 62.2943 71.812 58.2246 70.4043C53.9799 68.9619 49.9019 69.3382 47.1136 73.6687C45.5344 76.2164 46.7529 79.1544 49.48 82.0088C53.3569 86.0385 60.1464 89.9711 65.0646 92.5126C68.7779 94.4328 73.2066 94.5815 77.0624 92.9405C85.5124 89.331 91.2149 86.2703 96.109 83.4321C96.3574 83.2809 96.4375 82.9688 96.2867 82.7203C96.1147 82.3947 95.8031 82.3147 95.5547 82.4659Z" fill="#3D248A"/>
<path d="M94.5053 77.2034C94.4293 74.0895 95.4942 71.0065 97.9534 68.9469C98.4871 68.5252 99.4395 68.0058 100.323 67.876C100.764 67.811 101.163 67.8246 101.467 68.0509C101.669 68.2018 101.773 68.4213 101.825 68.775C101.938 69.4267 101.604 69.8552 101.178 70.1526C100.589 70.5644 99.8201 70.8582 99.2408 71.2143C97.5781 72.1814 96.5158 73.8008 96.4894 75.7194C96.4954 76.0076 96.7108 76.2469 96.9985 76.2407C97.2863 76.2345 97.5253 76.0187 97.5193 75.7306C97.5418 74.1557 98.4335 72.8504 99.746 72.0793C100.325 71.7232 101.127 71.4066 101.749 70.9719C102.502 70.4457 103.007 69.7031 102.806 68.5765C102.716 67.9576 102.419 67.5315 102.092 67.2725C101.743 66.9806 101.309 66.8458 100.821 66.8452C99.6248 66.8044 98.0573 67.5587 97.2845 68.1962C94.5862 70.4717 93.3834 73.8459 93.4883 77.2807C93.4944 77.5689 93.7425 77.7853 94.0302 77.7791C94.2951 77.7401 94.5114 77.4916 94.5053 77.2034Z" fill="#3D248A"/>
<path d="M97.4801 75.9553C99.2717 74.2647 101.773 72.6143 104.322 73.2691C104.923 73.4336 105.58 73.608 106.001 74.1423C106.546 74.7848 106.668 75.8687 105.778 76.1983C105.471 76.3158 105.059 76.2138 104.68 76.0889C104.167 75.9114 103.654 75.7339 103.219 75.5991C102.196 75.3883 101.117 75.6554 100.135 75.8539C99.8704 75.8928 99.6769 76.1742 99.7157 76.4395C99.7544 76.7047 100.035 76.8983 100.3 76.8593C101.193 76.6738 102.096 76.4327 103.008 76.6238C103.508 76.7128 104.112 77.0214 104.691 77.1531C105.214 77.2749 105.668 77.2984 106.097 77.145C107.723 76.5446 107.717 74.6487 106.718 73.4948C106.151 72.8196 105.37 72.537 104.523 72.3001C101.651 71.5303 98.7863 73.2883 96.7228 75.2176C96.5165 75.4105 96.5125 75.7543 96.6823 75.9281C96.9631 76.1216 97.2737 76.1482 97.4801 75.9553Z" fill="#3D248A"/>
<path d="M100.069 76.875C101.681 77.1619 102.847 77.3697 103.776 78.9132C103.903 79.1656 104.043 79.5063 104.04 79.8501C104.055 80.0827 104.016 80.3053 103.764 80.4327C103.577 80.5143 103.421 80.429 103.264 80.3436C102.917 80.1958 102.614 79.9695 102.346 79.8644C101.363 79.4308 100.333 79.4197 99.2701 79.4314C98.9824 79.4376 98.7661 79.6862 98.7721 79.9744C98.7781 80.2626 99.0262 80.479 99.314 80.4728C100.21 80.4314 101.096 80.4456 101.945 80.8266C102.269 80.9416 102.674 81.2434 103.075 81.4011C103.477 81.5588 103.909 81.5495 104.259 81.3535C104.708 81.0888 104.953 80.6732 105.01 80.1952C105.086 79.6059 104.895 78.9114 104.631 78.4625C103.529 76.6011 102.182 76.2751 100.238 75.9288C99.9599 75.8793 99.6979 76.0624 99.6484 76.3407C99.6088 76.5633 99.7914 76.8255 100.069 76.875Z" fill="#3D248A"/>
<path d="M79.3496 115.379L58.0289 128.468L42.6032 120.89C40.0978 112.427 42.505 107.752 47.2211 103.127L73.1106 102.389L79.3496 115.379Z" fill="#3D248A"/>
<path d="M65.1445 47.6177C66.1748 50.8405 64.1091 54.5558 61.3051 56.2433C59.7967 57.1484 57.3847 57.6664 56.06 56.1362C54.8774 54.7739 56.4674 52.299 57.3305 51.278C57.5559 51.0001 57.9037 50.5606 58.2712 50.4506C58.4002 50.3989 58.0585 50.5735 57.9296 50.6252C57.8006 50.677 57.6524 50.774 57.5234 50.8257C57.1817 51.0003 56.9238 51.1038 56.5562 51.2138C55.4987 51.5632 53.8989 51.6803 53.0139 50.8733C52.0578 49.9824 52.5852 48.871 53.4874 48.1342C53.8032 47.895 54.1642 47.6752 54.5252 47.4554C54.7186 47.3778 54.7831 47.3519 55.0217 47.2936C55.0862 47.2678 55.3314 47.3193 55.2603 47.2354C53.93 46.3446 50.8396 46.1977 51.4426 43.7815C51.7635 42.5282 53.2723 41.9977 54.3949 41.9971C55.5174 41.9965 56.6212 42.4158 57.6991 42.7705C58.8222 43.1446 59.9905 43.538 60.9526 44.1641L65.1445 47.6177Z" fill="#3D248A"/>
<path d="M78.1885 50.0955C79.5888 50.3208 81.0029 51.1404 82.0494 52.0701C82.5856 52.5673 83.1801 53.3034 83.007 54.0852C82.6161 56.0041 79.789 55.1142 78.7557 54.4042C78.6394 54.3009 78.9689 54.656 79.1304 54.7787C79.434 55.0692 79.5955 55.1919 79.8798 55.5276C80.7004 56.3605 81.825 57.8587 80.904 59.0156C80.2729 59.8687 78.8522 58.9393 78.2968 58.4873C78.0642 58.2807 77.8316 58.0741 77.6443 57.8869C77.5732 57.803 77.4955 57.6092 77.4762 57.6544C77.4635 57.8095 77.6514 58.3714 77.6387 58.5265C77.788 59.1789 77.7504 60.0187 77.3254 60.6392C76.939 61.1691 76.3582 61.0273 75.8931 60.6141C75.2924 60.1429 74.8715 58.9997 74.9157 58.2696C74.9345 57.8497 75.3081 57.4748 75.5336 57.1968C75.8362 56.738 76.0677 56.1952 76.3251 55.717C77.1487 54.0368 77.7072 51.9757 77.6594 50.0828L78.1885 50.0955Z" fill="#3D248A"/>
<path d="M97.3489 85.5873C101.653 85.7928 105.836 85.779 107.713 85.406C107.995 85.3588 108.156 85.0925 108.109 84.8095C108.062 84.5265 107.796 84.3656 107.514 84.4128C105.637 84.7858 101.561 84.7732 97.363 84.5414C97.086 84.5192 96.8242 84.7425 96.802 85.0199C96.8808 85.3404 97.1037 85.6026 97.3489 85.5873Z" fill="#3D248A"/>
<path d="M117.928 91.0884C117.864 91.1053 117.578 91.1481 117.321 91.2156C116.33 91.444 114.498 92.0242 112.127 92.6485C107.322 93.9139 100.384 95.5127 93.8454 95.7688C89.3923 95.9317 85.1004 95.531 81.7293 94.0084C81.4854 93.8772 81.378 93.5798 81.4886 93.3227C81.5991 93.0656 81.8896 92.9565 82.1676 93.0462C85.4146 94.5363 89.5525 94.8798 93.8476 94.7259C100.356 94.4452 107.23 92.8633 111.937 91.6563C114.692 90.9308 116.683 90.3415 117.546 90.1468C117.866 90.0625 118.054 90.0781 118.148 90.0859C121.167 90.6916 123.801 89.3791 125.485 87.1444C128.093 83.7215 128.569 78.1243 124.94 73.6732C124.764 73.4589 124.785 73.1277 125.015 72.9693C125.216 72.7863 125.528 72.8344 125.704 73.0487C129.654 77.9037 129.146 84.0308 126.264 87.786C124.312 90.2869 121.289 91.7669 117.928 91.0884Z" fill="#3D248A"/>
<path d="M57.1633 97.7395C57.1966 97.4879 57.1966 97.2364 57.2299 96.9988C57.2632 96.0624 57.2632 95.126 57.3297 94.1896C57.363 93.5327 57.4295 92.8898 57.3297 92.2329C57.2964 91.9534 57.4628 91.6878 57.729 91.6459C57.9952 91.6039 58.2614 91.7856 58.3279 92.0652C58.461 92.7919 58.3945 93.5187 58.3279 94.2455C58.2614 95.1819 58.2947 96.1183 58.2281 97.0547C58.2281 97.3622 58.1948 97.6557 58.1616 97.9631C58.1616 98.0749 58.1616 98.1029 58.1616 98.1728C58.1948 98.2427 58.1949 98.3265 58.2281 98.3685C58.2281 98.4942 58.1949 98.606 58.1283 98.7039C58.0618 98.8017 57.9287 98.9555 57.6292 98.9275C56.9304 98.8576 56.032 98.2846 55.5994 98.075C54.1354 97.3482 52.7711 96.5655 51.4068 95.7968C51.0075 95.5732 50.6082 95.3775 50.2089 95.1539C50.1424 95.4055 50.1424 95.671 50.1091 95.9226C50.0759 96.3419 50.0426 96.7472 50.0093 97.1665C49.9427 97.6976 49.8097 98.2287 49.7431 98.7598C49.7098 99.0393 49.4769 99.235 49.1774 99.207C48.9112 99.1791 48.7116 98.9275 48.7116 98.648C48.7781 98.1029 48.9112 97.5578 48.9778 97.0267C49.0443 96.6354 49.0443 96.2301 49.0776 95.8387C49.1109 95.3636 49.1441 94.8884 49.3771 94.4271C49.4103 94.3014 49.5102 94.1197 49.61 94.0498C49.7098 93.9939 49.8096 93.938 50.0093 93.952C50.0758 93.952 50.2089 93.9939 50.342 94.0638C50.4419 94.1197 50.6415 94.2455 50.6748 94.2734C51.0741 94.497 51.4734 94.7067 51.8727 94.9163C53.2369 95.671 54.5679 96.4537 56.032 97.1805C56.2649 97.2643 56.7308 97.5578 57.1633 97.7395ZM49.3438 94.3992C49.3105 94.4411 49.3105 94.511 49.3105 94.511C49.3105 94.511 49.3438 94.4691 49.3438 94.3992Z" fill="#3D248A"/>
<path d="M89.9633 1.85356L89.034 20.2511L94.5229 20.4023L99.9402 30.317L100.241 12.6243L93.7088 14.3258L89.9633 1.85356Z" fill="#FFC700"/>
<path d="M121.07 73.6936C120.824 73.3 120.578 72.808 120.431 72.3651C120.234 71.7254 120.234 71.0366 120.529 70.5445C120.775 70.1509 121.02 69.954 121.364 69.8556C121.659 69.7572 121.954 69.8064 122.298 69.9048C123.035 70.1509 123.771 70.8889 124.164 71.3318C124.361 71.5286 125 72.3159 125.196 72.5127C125.393 72.7095 125.442 73.0048 125.294 73.2508C125.098 73.4476 124.803 73.4968 124.557 73.3492C124.312 73.1524 123.575 72.3159 123.378 72.0699C123.133 71.7746 122.691 71.3318 122.199 71.0366C122.003 70.9382 121.806 70.8397 121.659 70.8889C121.561 70.9381 121.512 70.9874 121.413 71.0858C121.266 71.381 121.315 71.7254 121.413 72.1191C121.61 72.8572 122.101 73.546 122.445 73.9889C122.642 74.2841 122.838 74.5301 123.035 74.7762C123.084 74.8746 123.231 75.0222 123.329 75.0714C123.428 75.1698 123.428 75.3174 123.428 75.3666C123.428 75.5142 123.378 75.6127 123.329 75.7111C123.28 75.8095 123.133 75.9079 122.936 75.9571C122.838 75.9571 122.691 75.9571 122.494 75.8587C122.298 75.7603 122.003 75.4158 121.905 75.3666C121.512 75.0714 121.119 74.727 120.627 74.6778C120.234 74.6286 119.94 74.6286 119.841 74.8254C119.694 75.0222 119.743 75.3174 119.89 75.6619C120.185 76.3507 120.627 76.8428 121.168 77.3348C121.757 77.9253 122.347 78.4666 122.789 79.1555C122.936 79.3523 122.887 79.4999 122.838 79.5983C122.789 79.7951 122.642 79.9427 122.347 79.9427C122.298 79.9427 122.249 79.9427 122.199 79.8935C122.15 79.8935 122.003 79.7951 122.003 79.7951C121.905 79.7459 121.806 79.6967 121.757 79.6967C121.512 79.5491 121.217 79.4507 120.971 79.3523C120.627 79.2047 120.038 79.057 119.547 79.057C119.203 79.057 118.81 79.1062 118.711 79.4999C118.662 79.5983 118.711 79.6475 118.711 79.7459C118.761 79.8935 118.859 80.0411 118.908 80.1888C119.35 80.9268 120.234 81.4681 120.922 81.8617C121.217 82.0586 121.561 82.2062 121.905 82.3046C122.199 82.3538 122.347 82.649 122.249 82.9443C122.199 83.2395 121.905 83.3871 121.61 83.2887C121.168 83.1903 120.775 82.9935 120.382 82.7966C119.497 82.3046 118.466 81.6157 117.975 80.73C117.729 80.2872 117.483 79.6967 117.68 79.2047C117.925 78.565 118.417 78.2698 119.055 78.1713C119.547 78.0729 120.087 78.1713 120.578 78.2698L120.431 78.1221C119.841 77.5317 119.252 76.892 118.957 76.1047C118.662 75.3174 118.711 74.6778 119.055 74.2841C119.35 73.8905 119.989 73.6444 120.824 73.7921C120.873 73.6444 120.971 73.6936 121.07 73.6936Z" fill="white"/>
<path d="M127.76 175.399L117.199 184.805L113.935 172.594L127.76 175.399Z" fill="#FFC700"/>
<path d="M25.1447 130.76L13.3314 123.009L24.2574 116.663L25.1447 130.76Z" fill="#3D248A"/>
<path d="M19.3865 66.3884C19.5836 66.2491 19.8492 66.2273 20.0682 66.354C20.2872 66.4807 20.4012 66.722 20.3794 66.9627L19.9338 71.148L22.4121 74.5497C22.5514 74.7472 22.5733 75.0132 22.447 75.2324C22.3207 75.4517 22.0798 75.5656 21.8394 75.5435L17.6597 75.0941L14.2646 77.5733C14.0675 77.7127 13.8019 77.7344 13.5829 77.6077C13.3639 77.481 13.2498 77.2397 13.2717 76.999L13.7174 72.8138L11.239 69.4121C11.0997 69.2146 11.0778 68.9486 11.2041 68.7293C11.3304 68.5101 11.5713 68.3961 11.8117 68.4182L15.9914 68.8677L19.3865 66.3884Z" fill="#9C63FF"/>
<path d="M15.8492 68.3372L19.0786 65.9765C19.4413 65.7187 19.9265 65.6875 20.3062 65.9071C20.7004 66.1351 20.9161 66.5717 20.8599 67.0069L20.434 70.9892L22.7939 74.2249C23.0516 74.5884 23.0831 75.0743 22.8641 75.4543C22.6367 75.8489 22.201 76.0645 21.7663 76.008L17.7893 75.5783L14.5661 77.9621C14.2033 78.22 13.7181 78.2511 13.3385 78.0315C12.9443 77.8035 12.7286 77.367 12.7847 76.9317L13.2107 72.9495L10.8508 69.7137C10.593 69.3503 10.5615 68.8644 10.7805 68.4844C11.0079 68.0898 11.4437 67.8741 11.8784 67.9307L15.8492 68.3372ZM19.6795 66.7918C19.7194 66.7564 19.7716 66.7671 19.8008 66.784C19.8446 66.8093 19.857 66.8555 19.8547 66.8931L19.4091 71.0784C19.394 71.206 19.4249 71.3214 19.5018 71.4243L21.9802 74.826C22.0156 74.866 22.0049 74.9183 21.9881 74.9475C21.9628 74.9914 21.9167 75.0037 21.8791 75.0014L17.714 74.5604C17.5865 74.5451 17.463 74.5906 17.3686 74.653L13.9736 77.1322C13.9337 77.1676 13.8815 77.1569 13.8523 77.14C13.8085 77.1147 13.7961 77.0686 13.7983 77.0309L14.244 72.8456C14.2591 72.718 14.2282 72.6027 14.1513 72.4997L11.6645 69.1126C11.6291 69.0726 11.6398 69.0203 11.6566 68.9911C11.6819 68.9473 11.7279 68.9349 11.7655 68.9372L15.9453 69.3867C16.0728 69.4019 16.1963 69.3565 16.2906 69.2941L19.6795 66.7918Z" fill="#9C63FF"/>
<path d="M37.9481 144.451C25.3718 143.073 10.5357 151.586 3.3141 161.476C-0.0264789 166.101 -0.66512 170.579 0.612162 174.368C2.52808 180.026 8.61974 184.209 16.0869 184.996C21.5891 185.587 26.8456 184.258 32.2003 183.126C47.8225 179.731 63.199 171.514 78.8211 165.265C94.345 159.065 110.065 154.882 126.474 159.409C126.719 159.508 127.014 159.311 127.112 159.065C127.21 158.819 127.014 158.524 126.768 158.425C110.115 153.8 94.1485 158.032 78.4281 164.281C62.8551 170.481 47.5277 178.698 31.9547 182.093C26.6982 183.225 21.5399 184.553 16.136 183.963C9.16012 183.175 3.36323 179.337 1.59469 173.974C0.415657 170.431 1.00517 166.298 4.14925 162.017C11.1743 152.373 25.6174 144.106 37.8498 145.435C38.1446 145.484 38.3902 145.287 38.3902 144.992C38.3902 144.697 38.1937 144.451 37.9481 144.451Z" fill="#3D248A"/>
</svg>
