<svg width="267" height="248" viewBox="0 0 267 248" fill="none" xmlns="http://www.w3.org/2000/svg">
<path d="M181.473 185.802H105.94V192.717H181.473V185.802Z" fill="#00D5FF"/>
<path d="M90.9182 146.01C87.4656 133.029 74.1399 125.386 61.2381 128.844C48.2758 132.301 40.6437 145.646 44.0963 158.566L90.9182 146.01Z" fill="#00D5FF"/>
<path d="M54.1509 113.497C54.1509 113.497 61.8435 117.501 67.5978 113.012C73.655 108.281 70.7475 104.459 68.6881 104.095C62.5098 103.004 54.1509 113.497 54.1509 113.497Z" fill="#3D248A"/>
<path d="M71.535 172.032L81.4687 201.512L82.135 203.635L87.1019 221.53L88.1922 225.897L96.9751 223.835L95.9454 219.406L92.4928 201.209L91.8871 198.479L84.3762 168.211L82.4984 161.781L69.5967 165.542L71.535 172.032Z" fill="#3D248A"/>
<path d="M55.5442 171.79L52.6367 196.417L52.2127 198.661L45.671 222.318L44.2778 226.625L52.879 229.415L54.2722 225.108L62.8128 202.058L63.8425 198.237L68.8094 173.913L69.8391 167.301L56.6345 165.178L55.5442 171.79Z" fill="#3D248A"/>
<path d="M97.4597 231.174L101.639 230.992L103.82 230.689L104.365 234.996L102.245 235.299L95.7031 236.815L93.5225 237.119L90.918 231.538L89.7671 228.566L95.7637 226.261L96.9145 229.233L97.4597 231.174Z" fill="#FF5784"/>
<path d="M105.577 235.845L94.4314 237.907C94.0679 237.968 93.8257 238.332 93.8862 238.696C93.9468 239.06 94.3102 239.302 94.6737 239.242L105.819 237.179C106.182 237.119 106.425 236.755 106.364 236.391C106.364 236.027 106.001 235.784 105.577 235.845Z" fill="#3D248A"/>
<path d="M96.2482 227.899C95.8242 228.141 95.3396 228.263 94.9156 228.505C94.5522 228.687 94.4311 229.112 94.6128 229.476C94.7945 229.84 95.2185 229.961 95.5819 229.779C96.0059 229.536 96.4905 229.415 96.9145 229.172C97.2174 228.99 97.3385 228.566 97.1568 228.202C97.0356 227.838 96.6116 227.717 96.2482 227.899Z" fill="#3D248A"/>
<path d="M96.9148 230.204C96.4908 230.507 96.1274 230.871 95.7034 231.174C95.4005 231.417 95.3399 231.841 95.5216 232.145C95.7639 232.448 96.1879 232.509 96.4908 232.327C96.9148 232.023 97.3388 231.659 97.7628 231.356C98.0656 231.114 98.1262 230.689 97.8839 230.386C97.6417 230.022 97.2177 229.961 96.9148 230.204Z" fill="#3D248A"/>
<path d="M48.2758 236.573L51.365 239.484L53.061 240.819L50.3958 244.276L48.6998 242.942L43.0061 239.302L41.3101 237.968L43.4906 232.205L44.8232 229.294L50.6381 231.963L49.3055 234.874L48.2758 236.573Z" fill="#FF5784"/>
<path d="M50.638 245.732L41.3705 239.181C41.0676 238.938 40.6436 239.06 40.4014 239.363C40.1591 239.666 40.2802 240.091 40.5831 240.334L49.8505 246.885C50.1534 247.127 50.5774 247.006 50.8197 246.703C51.062 246.399 50.9408 245.914 50.638 245.732Z" fill="#3D248A"/>
<path d="M49.7898 233.479C49.3052 233.358 48.8812 233.055 48.3966 232.933C48.0332 232.812 47.6697 233.055 47.5486 233.419C47.4275 233.782 47.6697 234.146 48.0332 234.268C48.5178 234.389 48.9417 234.692 49.4263 234.814C49.7898 234.935 50.1532 234.692 50.2743 234.328C50.3955 233.964 50.1532 233.6 49.7898 233.479Z" fill="#3D248A"/>
<path d="M48.6391 235.542C48.094 235.481 47.6094 235.42 47.0643 235.36C46.7009 235.299 46.3374 235.542 46.2769 235.906C46.2163 236.269 46.4586 236.633 46.822 236.694C47.3671 236.755 47.8517 236.815 48.3969 236.876C48.7603 236.937 49.1237 236.694 49.1843 236.269C49.2449 235.906 49.0026 235.602 48.6391 235.542Z" fill="#3D248A"/>
<path d="M83.4677 167.483L67.4768 174.156L56.1499 171.972L56.4528 164.875L81.8323 162.509L83.4677 167.483Z" fill="#3D248A"/>
<path d="M66.5683 112.891C68.6277 115.56 68.9912 117.865 68.1432 119.563C67.3557 121.201 65.478 122.171 63.2369 122.171C62.4494 122.171 61.662 121.868 60.9957 121.565C59.3603 120.837 58.3911 119.685 57.6643 118.289C56.9374 116.834 56.5134 115.196 55.9683 113.558C55.9077 113.315 55.6654 113.194 55.4231 113.315C55.1808 113.376 55.0597 113.619 55.1808 113.861C55.726 115.499 56.2105 117.198 56.9374 118.714C57.7248 120.291 58.8151 121.565 60.6928 122.353C61.4803 122.717 62.3889 122.96 63.2369 123.021C65.8414 123.081 67.9614 121.868 68.87 119.927C69.7786 118.047 69.5363 115.378 67.174 112.345C67.0529 112.163 66.75 112.102 66.5683 112.284C66.4472 112.406 66.4472 112.709 66.5683 112.891Z" fill="#3D248A"/>
<path d="M53.9692 113.497C53.9692 113.497 59.9053 109.009 61.6013 107.371C66.6287 102.579 58.1487 97.3017 55.2412 104.156C53.6664 107.977 54.0298 111.071 53.9692 113.497Z" fill="#3D248A"/>
<path d="M57.4824 118.229C54.9384 116.652 51.9098 114.347 50.8801 111.556C50.3955 110.161 51.0012 108.281 52.7578 109.251C54.151 109.979 54.8173 111.496 55.423 112.83C56.0893 114.225 57.4824 118.229 57.4824 118.229Z" fill="#3D248A"/>
<path d="M36.4641 183.861C36.6458 184.164 36.7669 184.467 36.9486 184.71C37.1909 185.135 37.4938 185.681 37.7966 186.166C38.0389 186.59 38.3418 187.015 38.7658 187.258C38.8869 187.318 39.0687 187.44 39.2504 187.44C39.3715 187.44 39.4927 187.44 39.6138 187.379C39.9167 187.136 39.9772 186.712 39.9772 186.227C39.9167 185.377 39.4321 184.467 39.1292 183.982C39.0081 183.74 38.8264 183.497 38.7052 183.254C38.5235 182.89 38.3418 182.526 38.1601 182.162C38.0995 182.041 38.0995 181.92 38.0389 181.798C38.0389 181.738 37.9178 181.616 37.9178 181.556C37.8572 181.434 37.8572 181.374 37.9178 181.313C37.9178 181.192 37.9784 181.131 38.0389 181.071C38.0995 181.01 38.2206 180.949 38.4024 180.949C39.0687 181.01 39.7349 181.192 40.4618 181.253C41.0675 181.313 41.6732 181.253 42.2184 180.889C42.8847 180.464 42.8241 179.493 42.3395 179.008C41.9761 178.644 41.3098 178.584 40.8252 178.523C39.8561 178.402 38.7658 178.402 37.7966 178.462C37.5544 178.462 37.3726 178.28 37.3121 178.098C37.3121 177.856 37.4938 177.674 37.6755 177.613C38.7052 177.492 39.8561 177.552 40.8858 177.674C41.5521 177.734 42.3395 177.916 42.8847 178.402C43.7932 179.251 43.7932 180.889 42.6424 181.616C41.9155 182.041 41.1887 182.162 40.4012 182.102C39.9167 182.041 39.4321 181.98 39.0081 181.92C39.1292 182.223 39.3109 182.587 39.4927 182.89C39.6138 183.133 39.7955 183.376 39.9167 183.618C40.2195 184.225 40.7647 185.256 40.8252 186.227C40.8858 186.954 40.7647 187.682 40.1589 188.107C39.9167 188.289 39.6138 188.35 39.3109 188.35C38.9475 188.35 38.5235 188.168 38.2812 187.986C37.9178 187.743 37.6755 187.44 37.4332 187.076C37.4938 187.804 37.3726 188.471 36.8275 189.077C36.3429 189.623 35.6161 189.441 35.1315 189.077C34.7681 188.774 34.4652 188.41 34.2229 187.925C34.1018 188.835 33.7383 189.684 32.8298 190.23C32.2241 190.594 31.6183 190.473 31.1338 190.109C30.528 189.623 30.104 188.713 29.9223 188.107C29.3772 185.984 29.4983 183.436 30.7098 181.556C30.8915 181.313 31.1338 180.828 31.376 180.525C31.6183 180.221 31.8606 179.979 32.1029 179.918C32.3452 179.857 32.5875 179.979 32.6481 180.161C32.7086 180.403 32.5875 180.646 32.4058 180.707C32.2846 180.767 32.1635 180.889 32.0423 181.071C31.8 181.374 31.5578 181.798 31.4366 182.041C30.3463 183.74 30.2858 185.984 30.7703 187.925C30.8915 188.35 31.1338 188.895 31.4972 189.259C31.7395 189.563 32.0423 189.745 32.4058 189.502C33.1932 189.017 33.3749 188.35 33.4355 187.561C33.4961 186.651 33.2538 185.681 33.2538 184.831C33.2538 184.407 33.5566 184.407 33.6172 184.346C33.6778 184.346 33.9806 184.285 34.1018 184.589C34.1018 184.589 34.1623 184.771 34.1623 184.892C34.2229 185.013 34.2229 185.135 34.2229 185.256C34.2835 185.559 34.4046 185.923 34.5258 186.227C34.7681 186.954 35.0103 187.864 35.6766 188.35C35.7978 188.41 35.9189 188.471 35.9795 188.532C36.0401 188.532 36.1612 188.532 36.2218 188.471C36.5852 188.046 36.6458 187.561 36.5852 187.076C36.5246 186.469 36.2824 185.863 36.1612 185.377C36.0401 185.074 35.9795 184.71 35.8584 184.407C35.7978 184.285 35.6766 184.164 35.6161 184.043C35.5555 183.921 35.5555 183.861 35.5555 183.74C35.5555 183.618 35.6161 183.497 35.6766 183.436C35.7372 183.376 35.7978 183.315 35.9189 183.315C35.9795 183.315 36.1612 183.254 36.3429 183.497C36.3429 183.618 36.4641 183.861 36.4641 183.861Z" fill="#3D248A"/>
<path d="M119.024 125.932C119.266 125.629 119.448 125.386 119.629 125.083C119.811 124.84 119.932 124.598 120.114 124.355C120.538 123.749 122.597 120.412 124.233 118.714C124.717 118.229 125.141 117.865 125.505 117.683C125.868 117.501 126.171 117.501 126.413 117.622C126.716 117.743 126.898 117.925 127.019 118.229C127.201 118.593 127.261 118.957 127.201 119.321C127.14 119.684 126.837 120.412 126.353 121.383C125.747 122.475 124.96 123.809 124.354 124.901C124.96 124.537 125.626 124.295 126.353 124.476C127.08 124.658 127.261 125.326 127.14 125.993C127.08 126.478 126.837 126.903 126.595 127.327C127.443 126.963 128.352 126.903 129.321 127.449C129.926 127.813 130.108 128.359 129.987 128.965C129.866 129.693 129.26 130.542 128.836 130.967C127.201 132.483 124.96 133.575 122.718 133.454C122.416 133.454 121.931 133.454 121.446 133.393C121.083 133.333 120.78 133.211 120.538 133.029C120.356 132.847 120.356 132.605 120.477 132.423C120.659 132.241 120.901 132.241 121.083 132.362C121.204 132.483 121.386 132.483 121.568 132.544C121.992 132.605 122.416 132.605 122.718 132.605C124.717 132.726 126.777 131.755 128.23 130.36C128.533 130.057 128.897 129.572 129.078 129.087C129.2 128.723 129.2 128.359 128.897 128.177C128.109 127.752 127.382 127.873 126.716 128.237C125.929 128.662 125.141 129.268 124.475 129.693C124.112 129.875 123.93 129.632 123.93 129.572C123.869 129.511 123.748 129.268 123.93 129.026C123.93 129.026 124.112 128.905 124.112 128.844C124.233 128.783 124.293 128.662 124.414 128.601C124.657 128.359 124.899 128.116 125.081 127.873C125.565 127.267 126.292 126.66 126.353 125.872C126.353 125.75 126.353 125.629 126.353 125.508C126.353 125.447 126.292 125.326 126.171 125.326C125.626 125.204 125.202 125.386 124.778 125.629C124.293 125.993 123.869 126.418 123.506 126.842C123.264 127.085 123.021 127.327 122.779 127.57C122.718 127.631 122.658 127.813 122.597 127.934C122.537 128.055 122.476 128.116 122.355 128.116C122.234 128.177 122.113 128.177 121.992 128.116C121.931 128.116 121.81 128.055 121.749 127.934C121.689 127.873 121.568 127.691 121.689 127.449C121.689 127.388 121.87 127.206 121.87 127.145C122.052 126.842 122.234 126.6 122.416 126.296C122.779 125.69 124.536 122.839 125.565 120.837C125.989 120.048 126.292 119.381 126.353 119.139C126.353 118.957 126.353 118.775 126.292 118.593C126.232 118.471 126.171 118.35 126.11 118.289C126.05 118.289 126.05 118.289 125.989 118.289C125.929 118.289 125.808 118.35 125.747 118.411C125.505 118.593 125.202 118.835 124.838 119.199C123.203 120.898 121.204 124.113 120.841 124.719C120.659 124.962 120.538 125.204 120.356 125.447C120.114 125.811 119.872 126.114 119.629 126.418C119.569 126.539 119.448 126.6 119.387 126.721C119.326 126.782 119.266 126.903 119.205 126.963C119.145 127.024 119.024 127.085 118.963 127.085C118.842 127.145 118.781 127.085 118.66 127.085C118.539 127.024 118.478 126.963 118.418 126.842C118.176 126.236 117.994 125.568 117.691 124.901C117.449 124.355 117.085 123.809 116.54 123.506C115.874 123.142 115.026 123.627 114.844 124.295C114.723 124.78 114.965 125.386 115.147 125.872C115.51 126.782 115.995 127.752 116.54 128.541C116.661 128.723 116.601 129.026 116.419 129.147C116.237 129.268 115.934 129.208 115.813 129.026C115.268 128.177 114.723 127.145 114.299 126.175C114.057 125.568 113.814 124.78 113.936 124.052C114.238 122.899 115.692 122.05 116.843 122.717C117.57 123.142 117.994 123.749 118.357 124.476C118.721 125.022 118.842 125.447 119.024 125.932Z" fill="#3D248A"/>
<path d="M49.9112 94.6327L46.9432 89.6587C46.822 89.4768 46.5798 89.4161 46.398 89.5374C46.2163 89.6587 46.1558 89.9014 46.2769 90.0833L49.2449 95.0573C49.3661 95.2393 49.6083 95.2999 49.7901 95.1786C49.9112 95.1179 50.0323 94.8147 49.9112 94.6327Z" fill="#3D248A"/>
<path d="M45.7316 98.6968L37.4333 94.754C37.2515 94.6327 36.9487 94.754 36.8881 94.936C36.767 95.118 36.8881 95.4212 37.0698 95.4819L45.3682 99.4247C45.5499 99.546 45.8527 99.4247 45.9133 99.2427C45.9739 99.0607 45.9133 98.7574 45.7316 98.6968Z" fill="#3D248A"/>
<path d="M44.8231 104.035L38.4631 104.641C38.2208 104.641 38.0391 104.884 38.0996 105.127C38.0996 105.369 38.3419 105.551 38.5842 105.491L44.9442 104.884C45.1865 104.884 45.3682 104.641 45.3077 104.399C45.2471 104.217 45.0654 104.035 44.8231 104.035Z" fill="#3D248A"/>
<path d="M46.9431 163.298C46.9431 163.298 47.0642 162.994 47.3065 162.57C47.9728 161.175 49.6688 160.568 51.0619 161.175C51.7888 161.478 52.5762 161.842 53.3031 162.145C54.1511 162.509 55.1808 162.57 56.0894 162.206C56.998 161.842 57.6642 161.114 58.0277 160.204C58.0277 160.204 58.0277 160.204 58.0277 160.143C58.27 159.476 58.8151 158.991 59.4814 158.688C60.1477 158.445 60.8745 158.445 61.4803 158.748C61.7831 158.87 62.086 159.052 62.4494 159.173C64.5694 160.204 67.0529 159.294 68.0826 157.232C68.446 156.504 69.1123 155.897 69.9603 155.715C70.7477 155.473 71.6563 155.655 72.3226 156.079C72.4437 156.14 72.5649 156.261 72.686 156.322C73.5946 156.929 74.6849 157.111 75.7146 156.807C76.7443 156.504 77.5923 155.776 78.0769 154.806C78.4403 154.017 79.1066 153.471 79.9546 153.228C80.8026 152.986 81.6506 153.107 82.3775 153.592C82.9226 153.956 83.5284 154.32 84.0129 154.624C84.6792 155.048 85.4667 155.17 86.1935 154.927C86.9204 154.684 87.5261 154.199 87.8289 153.471C88.3135 152.379 88.7981 151.348 88.7981 151.348C88.9192 151.166 88.7981 150.923 88.6164 150.802C88.4347 150.681 88.1924 150.802 88.0712 150.984C88.0712 150.984 87.5867 152.015 87.1021 153.107C86.8598 153.592 86.4358 153.956 85.9512 154.078C85.4666 154.199 84.9215 154.138 84.4369 153.896C83.8918 153.592 83.3466 153.228 82.8015 152.865C81.8929 152.258 80.7421 152.137 79.7123 152.44C78.6826 152.743 77.774 153.471 77.35 154.442C76.9866 155.23 76.3203 155.776 75.5329 155.958C74.7455 156.201 73.8369 156.019 73.1706 155.594C73.0495 155.533 72.9283 155.412 72.8072 155.351C71.8986 154.745 70.8083 154.563 69.7786 154.866C68.7489 155.17 67.9009 155.837 67.4163 156.807C66.5683 158.506 64.5694 159.173 62.8734 158.384C62.5706 158.263 62.2677 158.081 61.9043 157.96C61.0563 157.535 60.0871 157.535 59.2391 157.838C58.3911 158.202 57.6642 158.87 57.3614 159.719C57.3614 159.719 57.3614 159.719 57.3614 159.78C57.1191 160.447 56.574 160.993 55.9077 161.296C55.2414 161.599 54.4539 161.539 53.7877 161.296C53.0608 160.993 52.2734 160.629 51.5465 160.325C49.7294 159.537 47.6093 160.325 46.7008 162.085C46.5191 162.509 46.3373 162.812 46.3373 162.812C46.2162 162.994 46.3373 163.237 46.5191 163.358C46.5796 163.54 46.8219 163.48 46.9431 163.298Z" fill="#3D248A"/>
<path d="M55.4836 136.184C53.9693 134.303 52.3945 133.272 50.8196 132.908C47.2459 131.937 44.0356 134.06 42.8241 134.849C36.2218 139.216 32.103 146.556 29.9829 153.774C27.8629 160.993 27.6207 168.15 28.7109 172.154C29.4378 174.883 30.2858 178.22 31.9818 180.525C32.103 180.707 32.3452 180.767 32.527 180.585C32.7087 180.464 32.7692 180.221 32.5875 180.039C30.9521 177.795 30.1647 174.58 29.4378 171.911C28.4081 168.029 28.5898 161.053 30.7098 153.956C32.8298 146.92 36.767 139.762 43.1876 135.456C44.2779 134.728 47.2459 132.726 50.5167 133.636C51.9099 134 53.3636 134.91 54.7568 136.669C54.8779 136.851 55.1808 136.851 55.3625 136.729C55.6048 136.608 55.6048 136.365 55.4836 136.184Z" fill="#3D248A"/>
<path d="M54.8171 136.669C56.6949 139.156 55.9074 141.643 53.9691 144.008C50.88 147.709 44.8834 151.105 41.4308 153.714C34.5256 158.991 34.8285 167.726 34.9496 170.577C35.0708 172.578 35.1313 175.065 35.9793 176.946C36.1005 177.128 36.3428 177.249 36.5245 177.128C36.7062 177.006 36.8273 176.764 36.7062 176.582C35.9188 174.823 35.8582 172.396 35.7371 170.516C35.6159 167.786 35.2525 159.355 41.8548 154.32C45.368 151.651 51.3646 148.254 54.5143 144.494C56.7554 141.825 57.5429 139.034 55.4229 136.184C55.3017 136.002 54.9989 135.941 54.8777 136.123C54.696 136.244 54.696 136.487 54.8171 136.669Z" fill="#3D248A"/>
<path d="M72.807 127.085C74.2607 124.477 77.9556 124.173 80.6207 125.447C83.6493 126.842 87.9499 128.783 96.0665 132.544C97.9442 133.393 100.428 133.575 103.275 133.272C107.393 132.847 112.179 131.331 116.358 129.45C116.54 129.329 116.661 129.087 116.54 128.905C116.419 128.723 116.176 128.601 115.995 128.723C111.876 130.542 107.151 131.998 103.153 132.483C100.488 132.787 98.1259 132.605 96.3694 131.816C88.1922 128.116 83.9522 126.114 80.9236 124.719C77.895 123.324 73.7155 123.749 72.0801 126.721C71.959 126.903 72.0195 127.145 72.2618 127.267C72.4435 127.327 72.6858 127.267 72.807 127.085Z" fill="#3D248A"/>
<path d="M92.4326 145.525C100.428 146.677 108.545 144.251 114.602 138.913C117.388 136.487 119.629 134.424 119.629 134.424C119.811 134.303 119.811 134 119.69 133.818C119.569 133.636 119.266 133.636 119.084 133.757C119.084 133.757 116.782 135.759 114.057 138.246C108.181 143.462 100.307 145.828 92.5538 144.676L92.4326 145.525Z" fill="#3D248A"/>
<path d="M142.889 196.72V242.76C142.889 243.124 143.192 243.488 143.616 243.488C143.979 243.488 144.342 243.185 144.342 242.76V196.72C144.342 196.356 144.04 195.992 143.616 195.992C143.252 196.053 142.889 196.356 142.889 196.72Z" fill="#3D248A"/>
<path d="M143.131 224.199L162.15 243.245C162.453 243.548 162.877 243.548 163.12 243.245C163.422 242.942 163.422 242.517 163.12 242.275L144.1 223.228C143.797 222.925 143.373 222.925 143.131 223.228C142.828 223.471 142.828 223.895 143.131 224.199Z" fill="#3D248A"/>
<path d="M143.131 223.228L124.111 242.275C123.809 242.578 123.809 243.003 124.111 243.245C124.414 243.548 124.838 243.548 125.081 243.245L144.1 224.199C144.403 223.895 144.403 223.471 144.1 223.228C143.858 222.925 143.373 222.925 143.131 223.228Z" fill="#3D248A"/>
<path d="M177.354 96.3311H109.877C109.635 96.3311 109.393 96.5131 109.393 96.8164V125.993C109.393 126.296 109.635 126.478 109.938 126.478C110.18 126.478 110.362 126.236 110.362 125.993V97.3017H176.869V188.35H110.362V148.012C110.362 147.648 109.998 147.466 109.695 147.587C109.514 147.648 109.453 147.83 109.453 148.012V188.774C109.453 189.017 109.635 189.259 109.938 189.259H177.415C177.657 189.259 177.899 189.077 177.899 188.774V96.8164C177.778 96.5131 177.596 96.3311 177.354 96.3311Z" fill="#3D248A"/>
<path d="M210.608 160.022V110.222C210.608 109.979 210.789 109.797 211.032 109.797C211.274 109.797 211.456 109.979 211.456 110.222V160.386C211.456 160.629 211.274 160.811 211.032 160.811H187.591C187.348 160.811 187.167 160.629 187.167 160.386C187.167 160.143 187.348 159.962 187.591 159.962H210.608V160.022Z" fill="#3D248A"/>
<path d="M143.979 74.2516V87.9603C143.979 88.2029 143.797 88.3849 143.555 88.3849C143.313 88.3849 143.131 88.2029 143.131 87.9603V73.8269C143.131 73.5843 143.313 73.4023 143.555 73.4023H187.59C187.833 73.4023 188.014 73.5843 188.014 73.8269C188.014 74.0696 187.833 74.2516 187.59 74.2516H143.979Z" fill="#3D248A"/>
<path d="M183.896 55.9935V66.0627C183.896 66.3053 183.714 66.4873 183.472 66.4873C183.23 66.4873 183.048 66.3053 183.048 66.0627V55.5689C183.048 55.3262 183.23 55.1442 183.472 55.1442H230.597C230.839 55.1442 231.021 55.3262 231.021 55.5689V119.806C231.021 120.048 230.839 120.23 230.597 120.23H216.181C215.938 120.23 215.757 120.048 215.757 119.806C215.757 119.563 215.938 119.381 216.181 119.381H230.233V55.9935H183.896Z" fill="#3D248A"/>
<path d="M150.763 164.268L191.77 125.872C191.952 125.69 192.194 125.75 192.376 125.872C192.558 126.054 192.497 126.296 192.376 126.478L151.066 165.117C150.884 165.239 150.703 165.239 150.521 165.117L133.682 151.045L117.206 168.393C117.025 168.575 116.782 168.575 116.601 168.393C116.419 168.211 116.419 167.968 116.601 167.786L133.379 150.196C133.5 150.014 133.803 150.014 133.924 150.135L150.763 164.268Z" fill="#FF5784"/>
<path d="M157.971 175.308H154.458V179.675H157.971V175.308Z" fill="#00D5FF"/>
<path d="M164.089 169.606H160.576V179.675H164.089V169.606Z" fill="#00D5FF"/>
<path d="M170.207 163.965H166.693V179.675H170.207V163.965Z" fill="#00D5FF"/>
<path d="M161.181 63.0905H158.213V66.7906H161.181V63.0905Z" fill="#3D248A"/>
<path d="M166.39 58.2985H163.422V66.8513H166.39V58.2985Z" fill="#3D248A"/>
<path d="M171.6 53.4458H168.632V66.7906H171.6V53.4458Z" fill="#3D248A"/>
<path d="M156.578 107.735C148.643 107.735 142.162 114.165 142.162 122.171C142.162 130.118 148.582 136.608 156.578 136.608C160.394 136.608 164.028 135.092 166.754 132.362L161.666 127.267C160.333 128.601 158.455 129.39 156.578 129.39C152.58 129.39 149.37 126.175 149.37 122.171C149.37 118.168 152.58 114.953 156.578 114.953V107.735Z" fill="#00D5FF"/>
<path d="M156.578 104.884C147.068 104.884 139.315 112.588 139.315 122.171C139.315 131.695 147.008 139.459 156.578 139.459C166.088 139.459 173.841 131.755 173.841 122.171C173.841 112.588 166.088 104.884 156.578 104.884ZM156.578 105.672C165.664 105.672 172.993 113.012 172.993 122.111C172.993 131.21 165.664 138.549 156.578 138.549C147.492 138.549 140.163 131.21 140.163 122.111C140.163 113.073 147.553 105.672 156.578 105.672ZM156.578 117.501C154.034 117.501 151.974 119.563 151.974 122.111C151.974 124.658 154.034 126.721 156.578 126.721C159.122 126.721 161.181 124.658 161.181 122.111C161.181 119.563 159.122 117.501 156.578 117.501ZM156.578 118.35C158.698 118.35 160.394 120.048 160.394 122.171C160.394 124.295 158.698 125.993 156.578 125.993C154.458 125.993 152.762 124.295 152.762 122.171C152.822 120.048 154.518 118.35 156.578 118.35Z" fill="#3D248A"/>
<path d="M173.659 108.099L167.118 119.442C166.996 119.624 166.754 119.685 166.572 119.563C166.391 119.442 166.33 119.199 166.451 119.017L173.114 107.492C173.175 107.371 173.296 107.31 173.478 107.31H188.378C188.62 107.31 188.802 107.492 188.802 107.735C188.802 107.977 188.62 108.159 188.378 108.159H173.659V108.099Z" fill="#3D248A"/>
<path d="M192.073 108.099H201.038C201.28 108.099 201.462 107.917 201.462 107.674C201.462 107.432 201.28 107.25 201.038 107.25H192.073C191.831 107.25 191.649 107.432 191.649 107.674C191.649 107.917 191.831 108.099 192.073 108.099Z" fill="#3D248A"/>
<path d="M192.073 112.224H201.038C201.28 112.224 201.462 112.042 201.462 111.799C201.462 111.556 201.28 111.374 201.038 111.374H192.073C191.831 111.374 191.649 111.556 191.649 111.799C191.649 112.042 191.831 112.224 192.073 112.224Z" fill="#3D248A"/>
<path d="M192.073 116.348H196.555C196.798 116.348 196.979 116.166 196.979 115.924C196.979 115.681 196.798 115.499 196.555 115.499H192.073C191.831 115.499 191.649 115.681 191.649 115.924C191.649 116.166 191.831 116.348 192.073 116.348Z" fill="#3D248A"/>
<path d="M119.387 104.823H133.379C133.621 104.823 133.803 104.641 133.803 104.399C133.803 104.156 133.621 103.974 133.379 103.974H119.387C119.145 103.974 118.963 104.156 118.963 104.399C118.963 104.641 119.145 104.823 119.387 104.823Z" fill="#00D5FF"/>
<path d="M119.387 109.13H133.379C133.621 109.13 133.803 108.948 133.803 108.705C133.803 108.463 133.621 108.281 133.379 108.281H119.387C119.145 108.281 118.963 108.463 118.963 108.705C118.963 108.948 119.145 109.13 119.387 109.13Z" fill="#00D5FF"/>
<path d="M119.387 113.437H126.353C126.595 113.437 126.777 113.255 126.777 113.012C126.777 112.769 126.595 112.588 126.353 112.588H119.387C119.145 112.588 118.963 112.769 118.963 113.012C118.963 113.255 119.145 113.437 119.387 113.437Z" fill="#00D5FF"/>
<path d="M129.502 170.031H138.467C138.709 170.031 138.891 169.849 138.891 169.606C138.891 169.364 138.709 169.182 138.467 169.182H129.502C129.26 169.182 129.078 169.364 129.078 169.606C129.078 169.849 129.26 170.031 129.502 170.031Z" fill="#3D248A"/>
<path d="M129.502 174.156H138.467C138.709 174.156 138.891 173.974 138.891 173.731C138.891 173.488 138.709 173.306 138.467 173.306H129.502C129.26 173.306 129.078 173.488 129.078 173.731C129.078 173.974 129.26 174.156 129.502 174.156Z" fill="#3D248A"/>
<path d="M129.502 178.28H133.984C134.227 178.28 134.408 178.098 134.408 177.856C134.408 177.613 134.227 177.431 133.984 177.431H129.502C129.26 177.431 129.078 177.613 129.078 177.856C129.078 178.098 129.26 178.28 129.502 178.28Z" fill="#3D248A"/>
<path d="M155.427 154.563L167.844 142.856C168.026 142.674 168.268 142.735 168.45 142.856C168.632 143.038 168.571 143.281 168.45 143.462L155.851 155.351C155.73 155.473 155.548 155.473 155.427 155.412L143.918 151.348L134.348 162.63C134.227 162.752 134.106 162.812 133.924 162.752L117.751 158.809C117.509 158.748 117.388 158.506 117.449 158.324C117.509 158.081 117.751 157.96 117.933 158.02L133.863 161.903L143.434 150.62C143.555 150.499 143.737 150.438 143.858 150.499L155.427 154.563Z" fill="#3D248A"/>
<path d="M259.671 73.0384L267 94.0868L242.832 87.5964L259.671 73.0384Z" fill="#FF5784"/>
<path d="M205.883 194.658L241.136 201.391L212.546 230.022L205.883 194.658Z" fill="#FFC700"/>
<path d="M33.9201 70.976L19.1407 101.669L0 68.4284L33.9201 70.976Z" fill="#00D5FF"/>
<path d="M248.586 121.322L260.216 123.567L250.767 132.969L248.586 121.322Z" fill="#3D248A"/>
<path d="M156.76 18.0821L157.668 29.9104L146.099 23.2381L156.76 18.0821Z" fill="#3D248A"/>
<path d="M10.6606 148.982L11.5692 160.811L0 154.138L10.6606 148.982Z" fill="#3D248A"/>
<path d="M188.439 146.071C187.954 146.01 187.53 146.01 187.045 146.071L186.985 147.102C186.561 147.223 186.137 147.405 185.773 147.709L184.925 147.102C184.562 147.405 184.259 147.769 184.077 148.194L184.865 148.861C184.683 149.286 184.562 149.71 184.562 150.196L183.532 150.499C183.532 150.984 183.653 151.409 183.835 151.833L184.865 151.651C185.047 152.076 185.349 152.44 185.713 152.683L185.289 153.653C185.652 153.896 186.076 154.138 186.561 154.26L187.045 153.35C187.469 153.471 187.954 153.471 188.378 153.35L188.863 154.26C189.287 154.138 189.711 153.896 190.135 153.653L189.711 152.683C190.074 152.379 190.377 152.015 190.559 151.651L191.588 151.833C191.77 151.409 191.891 150.923 191.891 150.499L190.861 150.196C190.861 149.71 190.74 149.286 190.559 148.861L191.346 148.194C191.104 147.769 190.801 147.405 190.498 147.102L189.65 147.709C189.287 147.405 188.863 147.223 188.439 147.102V146.071ZM187.712 148.922C188.439 148.922 189.044 149.528 189.044 150.256C189.044 150.984 188.439 151.591 187.712 151.591C186.985 151.591 186.379 150.984 186.379 150.256C186.379 149.528 186.985 148.922 187.712 148.922Z" fill="#3D248A"/>
<path d="M202.491 132.119C201.643 131.755 200.795 131.513 199.826 131.392L199.22 133.333C198.312 133.333 197.464 133.454 196.616 133.818L195.283 132.241C194.496 132.665 193.708 133.211 193.103 133.879L194.253 135.577C193.708 136.244 193.284 137.033 193.042 137.882H190.983C190.801 138.792 190.74 139.702 190.861 140.612L192.921 140.794C193.103 141.643 193.466 142.492 193.951 143.22L192.679 144.858C193.284 145.586 193.951 146.192 194.738 146.617L196.131 145.1C196.919 145.525 197.767 145.768 198.675 145.768L199.16 147.769C200.068 147.769 200.977 147.587 201.825 147.284L201.522 145.222C202.309 144.858 203.036 144.312 203.642 143.644L205.52 144.494C206.065 143.766 206.489 142.977 206.792 142.067L205.035 141.036C205.277 140.187 205.277 139.277 205.156 138.367L206.973 137.457C206.731 136.547 206.368 135.698 205.883 134.97L203.945 135.698C203.4 134.97 202.733 134.424 201.946 134L202.491 132.119ZM199.765 137.093C201.159 137.457 202.007 138.913 201.643 140.308C201.28 141.703 199.826 142.553 198.433 142.189C197.04 141.825 196.192 140.369 196.555 138.974C196.919 137.579 198.372 136.729 199.765 137.093Z" fill="#00D5FF"/>
<path d="M169.237 86.2619V88.021V89.7194L165.3 87.1717L169.237 84.5634V86.2619Z" fill="#00D5FF"/>
<path d="M175.537 86.2619V88.021V89.7194L171.6 87.1717L175.537 84.5634V86.2619Z" fill="#00D5FF"/>
<path d="M181.897 86.2619V88.021V89.7194L177.959 87.1717L181.897 84.5634V86.2619Z" fill="#00D5FF"/>
<path d="M216.968 173.185V170.213V167.422L223.51 171.729L216.968 175.975V173.185Z" fill="#FFC700"/>
<path d="M206.428 173.185V170.213V167.422L212.97 171.729L206.428 175.975V173.185Z" fill="#FFC700"/>
<path d="M195.828 173.185V170.213V167.422L202.43 171.729L195.828 175.975V173.185Z" fill="#FFC700"/>
<path d="M73.1704 72.1892C73.1704 62.1199 86.6779 53.9917 103.275 53.9917C119.871 53.9917 133.379 62.1806 133.379 72.1892C133.379 82.2584 119.871 90.3866 103.275 90.3866C99.8825 90.3866 96.4905 90.0227 93.2802 89.3554L77.8344 99.4854L84.1945 86.2012C77.2287 82.8044 73.1704 77.6484 73.1704 72.1892Z" fill="#FFC700"/>
<path d="M213.576 77.891C208.124 72.4318 199.16 72.4925 193.587 78.073C188.015 83.6536 187.954 92.631 193.405 98.0902C198.857 103.549 207.822 103.489 213.394 97.9082L203.521 88.021L213.576 77.891Z" fill="#FF5784"/>
<path d="M220.602 97.8476C222.359 96.0885 223.631 93.9048 224.297 91.5391C225.63 86.6258 224.297 81.4092 220.723 77.891L210.668 87.9603L220.602 97.8476Z" fill="#3D248A"/>
<path d="M94.6129 69.3989C95.4609 69.3989 96.1878 70.1268 96.1878 71.0367C96.1878 71.9465 95.4609 72.6744 94.6129 72.6744C93.7649 72.6744 93.0381 71.9465 93.0381 71.0367C93.0381 70.1268 93.7649 69.3989 94.6129 69.3989Z" fill="white"/>
<path d="M103.335 69.3989C104.183 69.3989 104.91 70.1268 104.91 71.0367C104.91 71.9465 104.183 72.6744 103.335 72.6744C102.487 72.6744 101.76 71.9465 101.76 71.0367C101.76 70.1268 102.487 69.3989 103.335 69.3989Z" fill="white"/>
<path d="M111.997 69.3989C112.845 69.3989 113.572 70.1268 113.572 71.0367C113.572 71.9465 112.845 72.6744 111.997 72.6744C111.149 72.6744 110.422 71.9465 110.422 71.0367C110.422 70.1268 111.149 69.3989 111.997 69.3989Z" fill="white"/>
<path d="M206.974 67.2759L221.874 47.0767C221.995 46.8947 222.298 46.8341 222.48 47.0161C222.662 47.1374 222.722 47.4407 222.54 47.6226L207.398 68.1251C207.276 68.3071 207.034 68.3677 206.792 68.2464L197.403 62.2413L192.255 68.1858C192.073 68.3677 191.831 68.3677 191.649 68.2464C191.467 68.0644 191.467 67.8218 191.588 67.6398L196.979 61.4527C197.1 61.2707 197.343 61.2707 197.524 61.392L206.974 67.2759Z" fill="#00D5FF"/>
<path d="M164.937 211.946C187.348 222.015 212.606 214.251 227.931 198.661C243.316 183.072 248.828 159.598 231.808 138.428C231.687 138.246 231.384 138.185 231.202 138.367C231.02 138.489 230.96 138.792 231.141 138.974C247.859 159.719 242.408 182.708 227.325 198.055C212.182 213.401 187.348 221.105 165.3 211.157C165.058 211.036 164.815 211.157 164.755 211.4C164.634 211.582 164.755 211.824 164.937 211.946Z" fill="#3D248A"/>
<path d="M121.931 18.7494C123.808 15.7771 126.171 13.1081 128.715 10.9851C141.798 0.430589 159.182 -2.17771 174.568 1.70441C189.953 5.58653 203.339 15.9591 208.306 31.3056C208.367 31.5482 208.245 31.7909 208.003 31.8515C207.761 31.9122 207.519 31.7909 207.458 31.5482C202.552 16.505 189.468 6.31443 174.325 2.55362C159.182 -1.26784 142.101 1.2798 129.199 11.6523C126.777 13.6541 124.535 16.2017 122.718 18.992C124.354 19.4772 125.989 20.0838 127.564 20.8117C130.593 22.1462 133.258 23.966 135.62 26.3923C139.375 30.2744 140.345 34.0959 139.739 37.2501C138.77 42.0421 134.045 45.4389 129.26 45.8029C126.595 45.9849 123.869 45.257 121.749 43.2552C119.629 41.3142 118.115 38.0993 117.812 33.4286C117.57 29.3645 118.296 25.9677 119.992 22.3282C120.416 21.4183 120.901 20.4478 121.446 19.5379C119.023 18.8707 116.6 18.3854 114.117 18.0821C89.5855 14.9885 55.9682 26.6956 31.7395 46.8947C7.57141 67.0939 -7.20809 95.8459 5.99654 127.024C6.11769 127.267 5.99654 127.509 5.75426 127.57C5.51197 127.691 5.26968 127.57 5.20911 127.327C-8.17723 95.7245 6.7234 66.6086 31.1944 46.2275C55.6048 25.8464 89.5249 14.1393 114.238 17.2329C116.843 17.5362 119.387 18.0215 121.931 18.7494ZM122.294 19.7805C121.749 20.7511 121.204 21.7216 120.719 22.6921C119.084 26.2103 118.357 29.4858 118.66 33.368C118.963 37.796 120.356 40.7683 122.294 42.588C124.232 44.4077 126.716 45.075 129.199 44.893C133.621 44.5897 137.982 41.4355 138.891 37.0681C139.497 34.0959 138.527 30.6384 135.014 26.9989C132.713 24.6332 130.169 22.8741 127.261 21.6003C125.626 20.8724 123.99 20.2658 122.294 19.7805Z" fill="#3D248A"/>
</svg>
