<svg width="75" height="42" viewBox="0 0 75 42" fill="none" xmlns="http://www.w3.org/2000/svg">
<path d="M37.1466 22.5863C27.4473 22.5863 19.5559 30.5265 19.5559 40.2868C19.5559 40.9511 20.0908 41.4901 20.7517 41.4901H53.5407C54.2008 41.4901 54.7365 40.9511 54.7365 40.2868C54.7365 30.5265 46.8452 22.5863 37.1466 22.5863ZM21.9945 39.0835C22.6067 31.2108 29.1692 24.9929 37.1466 24.9929C45.1241 24.9929 51.6865 31.2108 52.2979 39.0835H21.9945Z" fill="black"/>
<path d="M36.8596 20.9971C42.5539 20.9971 47.1864 16.3356 47.1864 10.6054C47.1864 4.87533 42.5531 0.213745 36.8596 0.213745C31.1653 0.213745 26.5329 4.87533 26.5329 10.6054C26.5329 16.3356 31.1653 20.9971 36.8596 20.9971ZM36.8596 2.62034C41.2346 2.62034 44.7948 6.20216 44.7948 10.6054C44.7948 15.0079 41.2346 18.5905 36.8596 18.5905C32.4839 18.5905 28.9245 15.0087 28.9245 10.6054C28.9245 6.20216 32.4839 2.62034 36.8596 2.62034Z" fill="black"/>
<path d="M13.7684 29.2261C15.7302 29.2261 17.657 29.7523 19.3407 30.7486C19.9099 31.0872 20.6433 30.8938 20.9773 30.3219C21.3121 29.7491 21.1224 29.0111 20.5524 28.6741C18.502 27.4604 16.1559 26.8195 13.7684 26.8195C6.3888 26.8195 0.385193 32.8608 0.385193 40.2868C0.385193 40.951 0.920105 41.4901 1.58097 41.4901H16.7371C17.3979 41.4901 17.9328 40.951 17.9328 40.2868C17.9328 39.6226 17.3979 39.0835 16.7371 39.0835H2.84132C3.43921 33.5483 8.11152 29.2261 13.7684 29.2261Z" fill="black"/>
<path d="M13.5563 24.8982C17.9576 24.8982 21.5393 21.2948 21.5393 16.865C21.5393 12.4353 17.9584 8.83179 13.5563 8.83179C9.15423 8.83179 5.57327 12.4353 5.57327 16.865C5.57327 21.294 9.15423 24.8982 13.5563 24.8982ZM13.5563 11.2384C16.639 11.2384 19.1478 13.7621 19.1478 16.865C19.1478 19.9671 16.6398 22.4916 13.5563 22.4916C10.4728 22.4916 7.96483 19.9679 7.96483 16.865C7.96483 13.7621 10.4728 11.2384 13.5563 11.2384Z" fill="black"/>
<path d="M60.6214 26.8195C58.2346 26.8195 55.8885 27.4612 53.8373 28.6741C53.2673 29.0111 53.0776 29.7483 53.4124 30.3211C53.7472 30.8954 54.4822 31.0856 55.049 30.7486C56.7335 29.7523 58.6603 29.2261 60.6214 29.2261C66.2782 29.2261 70.9505 33.5483 71.5484 39.0835H57.655C56.995 39.0835 56.4593 39.6226 56.4593 40.2868C56.4593 40.951 56.995 41.4901 57.655 41.4901H72.8088C73.4688 41.4901 74.0045 40.951 74.0045 40.2868C74.0045 32.8608 68.0009 26.8195 60.6214 26.8195Z" fill="black"/>
<path d="M60.8342 24.8982C65.2355 24.8982 68.8172 21.2948 68.8172 16.865C68.8172 12.4353 65.2363 8.83179 60.8342 8.83179C56.4322 8.83179 52.8504 12.4353 52.8504 16.865C52.8512 21.294 56.4322 24.8982 60.8342 24.8982ZM60.8342 11.2384C63.9169 11.2384 66.4257 13.7621 66.4257 16.865C66.4257 19.9671 63.9177 22.4916 60.8342 22.4916C57.7507 22.4916 55.242 19.9679 55.242 16.865C55.2428 13.7621 57.7507 11.2384 60.8342 11.2384Z" fill="black"/>
</svg>
