<svg width="68" height="54" viewBox="0 0 68 54" fill="none" xmlns="http://www.w3.org/2000/svg">
<path d="M60.4295 9.90673H44.7265V6.50351C44.7265 3.01021 42.39 0.168213 39.5193 0.168213H28.2543C25.3828 0.168213 23.047 3.01021 23.047 6.50351V9.90673H7.34167C3.56461 9.90673 0.491455 12.9791 0.491455 16.757V46.9755C0.491455 50.7526 3.56381 53.8257 7.34167 53.8257H60.4295C64.2065 53.8257 67.2797 50.7534 67.2797 46.9755V16.757C67.2797 12.9791 64.2065 9.90673 60.4295 9.90673ZM25.4386 6.50351C25.4386 4.36544 26.7276 2.55979 28.2543 2.55979H39.5193C41.0459 2.55979 42.3349 4.36544 42.3349 6.50351V9.90673H25.4386V6.50351ZM64.8881 46.9755C64.8881 49.434 62.888 51.4342 60.4295 51.4342H7.34167C4.88315 51.4342 2.88301 49.434 2.88301 46.9755V16.757C2.88301 14.2985 4.88315 12.2983 7.34167 12.2983H60.4295C62.888 12.2983 64.8881 14.2985 64.8881 16.757V46.9755Z" fill="#E7EB90"/>
<path d="M20.3095 33.4758C19.6486 33.4758 19.1137 34.0115 19.1137 34.6716V44.8039C19.1137 45.464 19.6486 45.9997 20.3095 45.9997C20.9704 45.9997 21.5053 45.464 21.5053 44.8039V34.6716C21.5053 34.0115 20.9704 33.4758 20.3095 33.4758Z" fill="#E7EB90"/>
<path d="M28.5628 29.6126C27.9019 29.6126 27.367 30.1483 27.367 30.8084V44.8047C27.367 45.4648 27.9019 46.0005 28.5628 46.0005C29.2237 46.0005 29.7586 45.4648 29.7586 44.8047V30.8084C29.7586 30.1483 29.2237 29.6126 28.5628 29.6126Z" fill="#E7EB90"/>
<path d="M37.4139 25.9957C36.7538 25.9957 36.2181 26.5306 36.2181 27.1915V44.8039C36.2181 45.464 36.7538 45.9997 37.4139 45.9997C38.074 45.9997 38.6097 45.464 38.6097 44.8039V27.1915C38.6097 26.5306 38.074 25.9957 37.4139 25.9957Z" fill="#E7EB90"/>
<path d="M46.6661 21.8638C46.006 21.8638 45.4703 22.3987 45.4703 23.0596V44.8039C45.4703 45.464 46.006 45.9997 46.6661 45.9997C47.3261 45.9997 47.8618 45.464 47.8618 44.8039V23.0596C47.8618 22.3987 47.3269 21.8638 46.6661 21.8638Z" fill="#E7EB90"/>
</svg>
