<svg width="77" height="42" viewBox="0 0 77 42" fill="none" xmlns="http://www.w3.org/2000/svg">
<path d="M52.4496 29.7194C50.1546 27.833 46.8917 27.9171 44.6947 29.7571L30.1578 18.1189C30.3393 17.4204 30.403 16.6891 30.329 15.949C30.165 14.3181 29.3801 12.849 28.1176 11.8125C25.513 9.67292 21.6635 10.0654 19.5373 12.6864C17.6277 15.0406 17.7534 18.4009 19.6854 20.6125L10.676 30.9402C9.42468 29.9421 7.86448 29.4743 6.27721 29.6425C4.65652 29.8067 3.19662 30.5973 2.16657 31.867C0.0403984 34.4887 0.430448 38.3617 3.03503 40.5012C4.13433 41.404 5.4796 41.8846 6.8798 41.8846C7.08756 41.8846 7.29612 41.8742 7.50547 41.8526C9.12617 41.6875 10.5861 40.8977 11.6161 39.6273C12.6462 38.3577 13.123 36.7604 12.959 35.1295C12.8754 34.2965 12.6271 33.5059 12.2378 32.7929L21.5966 22.0648C22.4404 22.4789 23.3471 22.7008 24.2569 22.7008C26.0273 22.7008 27.7833 21.931 28.9869 20.4475C29.0195 20.4075 29.0458 20.365 29.0768 20.3242L43.191 31.6242C41.8736 34.1515 42.4563 37.354 44.7369 39.2276C45.8673 40.1552 47.2308 40.607 48.5873 40.607C50.3576 40.607 52.1136 39.838 53.3172 38.3537C54.3473 37.084 54.8241 35.4868 54.6601 33.8559C54.4969 32.225 53.7105 30.7559 52.4496 29.7194ZM9.76537 38.1086C9.13891 38.8815 8.25055 39.3622 7.26428 39.4623C6.28199 39.5656 5.31323 39.2708 4.54428 38.6404C2.9594 37.3388 2.72299 34.9829 4.01572 33.3865C5.30925 31.7917 7.65194 31.5538 9.23602 32.8554C9.38886 32.9812 9.521 33.1246 9.65075 33.2696C9.71682 33.3993 9.80597 33.5203 9.92219 33.6228C10.2796 34.1379 10.5168 34.7298 10.5821 35.3722C10.6824 36.3639 10.3926 37.3356 9.76537 38.1086ZM27.1361 18.928C26.5097 19.7002 25.6213 20.1808 24.6358 20.2817C23.6496 20.3818 22.684 20.0903 21.9158 19.4599C20.3309 18.1582 20.0937 15.8016 21.3873 14.2067C22.6808 12.6111 25.0235 12.3732 26.6076 13.6748C27.3757 14.3053 27.8533 15.1992 27.9528 16.1917C28.0531 17.1833 27.7626 18.155 27.1361 18.928ZM51.4673 36.8341C50.1745 38.4282 47.8326 38.6685 46.247 37.366C44.6621 36.0643 44.4249 33.7077 45.7184 32.1121C46.4507 31.2093 47.519 30.7415 48.596 30.7415C49.4207 30.7415 50.2509 31.0163 50.9387 31.581C52.5236 32.8827 52.7608 35.2385 51.4673 36.8341Z" fill="black"/>
<path d="M57.958 24.5511C57.4422 24.1378 56.6907 24.2259 56.2808 24.7433L54.4706 27.0351C54.0599 27.5541 54.1459 28.3111 54.6617 28.7228C54.8814 28.8991 55.1433 28.984 55.4044 28.984C55.7554 28.984 56.1041 28.8286 56.3397 28.5306L58.1499 26.2389C58.5598 25.7198 58.4746 24.9628 57.958 24.5511Z" fill="black"/>
<path d="M65.4828 15.0349C64.9686 14.6224 64.2155 14.7081 63.8056 15.2271L60.0436 19.9852C59.6328 20.5043 59.7188 21.2605 60.2346 21.6738C60.4535 21.85 60.7162 21.9349 60.9773 21.9349C61.3284 21.9349 61.677 21.7795 61.9126 21.4816L65.6746 16.7235C66.0838 16.2044 65.9986 15.4482 65.4828 15.0349Z" fill="black"/>
<path d="M71.0565 7.98518C70.5423 7.57185 69.7893 7.65916 69.3793 8.17743L67.5676 10.4692C67.1568 10.9882 67.2428 11.7444 67.7586 12.1577C67.9775 12.334 68.2402 12.4189 68.5013 12.4189C68.8523 12.4189 69.201 12.2635 69.4366 11.9655L71.2484 9.67374C71.6575 9.15468 71.5723 8.39851 71.0565 7.98518Z" fill="black"/>
<path d="M76.3047 0.666951C75.9823 0.436256 75.5676 0.382586 75.199 0.520363L66.2573 3.85423C65.6396 4.08493 65.3236 4.77622 65.5528 5.39861C65.7813 6.02021 66.4675 6.33822 67.0876 6.10832L74.3911 3.38564L74.2565 11.2221C74.2454 11.8861 74.7708 12.4324 75.4307 12.4444C75.4378 12.4444 75.445 12.4444 75.4514 12.4444C76.1009 12.4444 76.6326 11.9198 76.6446 11.2637L76.8086 1.66903C76.8149 1.27092 76.6271 0.896045 76.3047 0.666951Z" fill="black"/>
</svg>
