<svg width="66" height="73" viewBox="0 0 66 73" fill="none" xmlns="http://www.w3.org/2000/svg">
<path d="M18.7379 30.3738H10.9558C10.295 30.3738 9.76004 30.9249 9.76004 31.6058V39.6237C9.76004 40.3038 10.295 40.8558 10.9558 40.8558H18.7379C19.3988 40.8558 19.9337 40.3038 19.9337 39.6237V31.6058C19.9337 30.9257 19.3988 30.3738 18.7379 30.3738ZM17.5422 38.3917H12.1516V32.8378H17.5422V38.3917Z" fill="black"/>
<path d="M36.8883 30.3738H29.1061C28.4453 30.3738 27.9104 30.9249 27.9104 31.6058V39.6237C27.9104 40.3038 28.4453 40.8558 29.1061 40.8558H36.8883C37.5483 40.8558 38.0841 40.3038 38.0841 39.6237V31.6058C38.0841 30.9257 37.5483 30.3738 36.8883 30.3738ZM35.6925 38.3917H30.3019V32.8378H35.6925V38.3917Z" fill="black"/>
<path d="M54.479 30.3738H46.6969C46.0368 30.3738 45.5011 30.9249 45.5011 31.6058V39.6237C45.5011 40.3038 46.0368 40.8558 46.6969 40.8558H54.479C55.1391 40.8558 55.6748 40.3038 55.6748 39.6237V31.6058C55.6748 30.9257 55.1391 30.3738 54.479 30.3738ZM53.2832 38.3917H47.8927V32.8378H53.2832V38.3917Z" fill="black"/>
<path d="M18.7379 48.6372H10.9558C10.295 48.6372 9.76004 49.1891 9.76004 49.8692V57.8872C9.76004 58.5672 10.295 59.1192 10.9558 59.1192H18.7379C19.3988 59.1192 19.9337 58.5672 19.9337 57.8872V49.8692C19.9337 49.1891 19.3988 48.6372 18.7379 48.6372ZM17.5422 56.6552H12.1516V51.1012H17.5422V56.6552Z" fill="black"/>
<path d="M36.8883 48.6372H29.1061C28.4453 48.6372 27.9104 49.1891 27.9104 49.8692V57.8872C27.9104 58.5672 28.4453 59.1192 29.1061 59.1192H36.8883C37.5483 59.1192 38.0841 58.5672 38.0841 57.8872V49.8692C38.0841 49.1891 37.5483 48.6372 36.8883 48.6372ZM35.6925 56.6552H30.3019V51.1012H35.6925V56.6552Z" fill="black"/>
<path d="M54.479 48.6372H46.6969C46.0368 48.6372 45.5011 49.1891 45.5011 49.8692V57.8872C45.5011 58.5672 46.0368 59.1192 46.6969 59.1192H54.479C55.1391 59.1192 55.6748 58.5672 55.6748 57.8872V49.8692C55.6748 49.1891 55.1391 48.6372 54.479 48.6372ZM53.2832 56.6552H47.8927V51.1012H53.2832V56.6552Z" fill="black"/>
<path d="M63.9496 6.51621H56.0518C56.0415 6.51621 56.0327 6.51867 56.0223 6.51949V4.87845C56.0223 2.1943 53.9034 0.0111694 51.2982 0.0111694C48.693 0.0111694 46.5741 2.19512 46.5741 4.87845V6.51621H37.6751V4.87845C37.6751 2.1943 35.5562 0.0111694 32.951 0.0111694C30.3458 0.0111694 28.2269 2.19512 28.2269 4.87845V6.51621H19.3271V4.87845C19.3271 2.1943 17.2082 0.0111694 14.603 0.0111694C11.9977 0.0111694 9.87883 2.19512 9.87883 4.87845V6.51703C9.87484 6.51703 9.87086 6.51621 9.86687 6.51621H1.97074C1.30988 6.51621 0.774963 7.06733 0.774963 7.74822V71.6044C0.774963 72.2844 1.30988 72.8364 1.97074 72.8364H63.9496C64.6096 72.8364 65.1453 72.2844 65.1453 71.6044V7.74822C65.1453 7.06733 64.6096 6.51621 63.9496 6.51621ZM48.9657 4.87845C48.9657 3.5528 50.0116 2.4752 51.2982 2.4752C52.5849 2.4752 53.6308 3.5528 53.6308 4.87845V11.6767C53.6308 13.0015 52.5849 14.08 51.2982 14.08C50.0116 14.08 48.9657 13.0024 48.9657 11.6767V4.87845ZM32.951 2.4752C34.2368 2.4752 35.2836 3.5528 35.2836 4.87845V11.6767C35.2836 13.0015 34.2376 14.08 32.951 14.08C31.6643 14.08 30.6184 13.0024 30.6184 11.6767V7.86321C30.6216 7.82461 30.6296 7.78765 30.6296 7.7474C30.6296 7.70715 30.6216 7.67019 30.6184 7.63159V4.87845C30.6184 3.5528 31.6643 2.4752 32.951 2.4752ZM12.2704 4.87845C12.2704 3.5528 13.3163 2.4752 14.603 2.4752C15.8888 2.4752 16.9355 3.5528 16.9355 4.87845V11.6767C16.9355 13.0015 15.8896 14.08 14.603 14.08C13.3163 14.08 12.2704 13.0024 12.2704 11.6767V4.87845ZM62.7538 70.3723H3.16652V8.98024H9.86687C9.87086 8.98024 9.87484 8.97941 9.87883 8.97941V11.6775C9.87883 14.3617 11.9985 16.5448 14.603 16.5448C17.2074 16.5448 19.3271 14.3617 19.3271 11.6775V8.98106H28.2269V11.6775C28.2269 14.3617 30.3466 16.5448 32.951 16.5448C35.5554 16.5448 37.6751 14.3617 37.6751 11.6775V8.98106H46.5741V11.6775C46.5741 14.3617 48.693 16.5448 51.2982 16.5448C53.9034 16.5448 56.0223 14.3617 56.0223 11.6775V8.97695C56.0327 8.97695 56.0415 8.98024 56.0518 8.98024H62.7538V70.3723Z" fill="black"/>
</svg>
